<svg xmlns="http://www.w3.org/2000/svg" xmlns:svg="http://www.w3.org/2000/svg" id="svg336" width="300.461" height="300.461" version="1.2" viewBox="0 0 225.345 225.346"><metadata id="metadata340"/><title id="title2">Qt SVG Document</title><desc id="desc4">Generated with Qt</desc><g id="g334" fill="none" fill-rule="evenodd" stroke="#000" stroke-linecap="square" stroke-linejoin="bevel" stroke-width="1" transform="matrix(0.375,0,0,0.375,-246.18129,-81.79801)"><g id="g328" fill="none" stroke="#000" stroke-linecap="butt" stroke-linejoin="miter" stroke-miterlimit="2" stroke-opacity="1" stroke-width="4" font-family="Sans Serif" font-size="9" font-style="normal" font-weight="400" transform="scale(1.00104)"><polyline id="polyline16" fill="none" points="1254.5 518.5 1254.5 518.5 1195.5 518.5" vector-effect="none"/><polyline id="polyline18" fill="none" points="1166.7 307.3 1166.7 307.3 1125.2 348.8" vector-effect="none"/><polyline id="polyline20" fill="none" points="1254.1 518.1 1254.1 518.1 1253.3 496.8 1251.1 475.6 1247.2 454.7 1241.9 434.1 1235.2 413.9 1227.1 394.2 1217.6 375.2 1206.7 356.9 1194.6 339.4 1181.3 322.8 1166.7 307.3" vector-effect="none"/><polyline id="polyline22" fill="none" points="1195.3 518.1 1195.3 518.1 1194.7 501 1192.9 484 1189.8 467.2 1185.6 450.6 1180.2 434.4 1173.6 418.6 1166 403.4 1157.3 388.6 1147.6 374.6 1136.9 361.3 1125.2 348.8" vector-effect="none"/><polyline id="polyline24" fill="none" points="1166.7 307.3 1166.7 307.3 1125.2 348.8" vector-effect="none"/><polyline id="polyline26" fill="none" points="956.5 219.5 956.5 219.5 956.5 278.5" vector-effect="none"/><polyline id="polyline28" fill="none" points="1166.7 307.3 1166.7 307.3 1151.2 292.7 1134.6 279.4 1117.1 267.3 1098.8 256.4 1079.8 246.9 1060.1 238.8 1039.9 232.1 1019.3 226.8 998.4 222.9 977.2 220.7 956 219.9" vector-effect="none"/><polyline id="polyline30" fill="none" points="1125.2 348.8 1125.2 348.8 1112.7 337.1 1099.4 326.4 1085.4 316.7 1070.6 308 1055.4 300.4 1039.6 293.8 1023.4 288.4 1006.8 284.2 990 281.1 973 279.3 956 278.7" vector-effect="none"/><polyline id="polyline32" fill="none" points="956.5 219.5 956.5 219.5 956.5 278.5" vector-effect="none"/><polyline id="polyline34" fill="none" points="745.2 307.3 745.2 307.3 786.7 348.8" vector-effect="none"/><polyline id="polyline36" fill="none" points="956 219.9 956 219.9 934.7 220.7 913.5 222.9 892.6 226.8 872 232.1 851.8 238.8 832.1 246.9 813.1 256.4 794.8 267.3 777.3 279.4 760.7 292.7 745.2 307.3" vector-effect="none"/><polyline id="polyline38" fill="none" points="956 278.7 956 278.7 938.9 279.3 921.9 281.1 905.1 284.2 888.5 288.4 872.3 293.8 856.5 300.4 841.3 308 826.5 316.7 812.5 326.4 799.2 337.1 786.7 348.8" vector-effect="none"/><polyline id="polyline40" fill="none" points="745.2 307.3 745.2 307.3 786.7 348.8" vector-effect="none"/><polyline id="polyline42" fill="none" points="657.8 518 657.8 518 716.6 518.1" vector-effect="none"/><polyline id="polyline44" fill="none" points="745.2 307.3 745.2 307.3 730.6 322.8 717.3 339.4 705.2 356.9 694.3 375.2 684.8 394.2 676.7 413.9 670 434.1 664.7 454.7 660.8 475.6 658.6 496.8 657.8 518" vector-effect="none"/><polyline id="polyline46" fill="none" points="786.7 348.8 786.7 348.8 775 361.3 764.3 374.6 754.6 388.6 745.9 403.4 738.3 418.6 731.7 434.4 726.3 450.6 722.1 467.2 719 484 717.2 501 716.6 518.1" vector-effect="none"/><polyline id="polyline48" fill="none" points="657.8 518 657.8 518 716.6 518.1" vector-effect="none"/><polyline id="polyline50" fill="none" points="745.2 728.8 745.2 728.8 786.7 687.3" vector-effect="none"/><polyline id="polyline52" fill="none" points="657.8 518 657.8 518 658.6 539.3 660.8 560.5 664.7 581.4 670 602 676.7 622.2 684.8 641.9 694.3 660.9 705.2 679.2 717.3 696.7 730.6 713.3 745.2 728.8" vector-effect="none"/><polyline id="polyline54" fill="none" points="716.6 518.1 716.6 518.1 717.2 535.1 719 552.1 722.1 568.9 726.3 585.5 731.7 601.7 738.3 617.5 745.9 632.7 754.6 647.5 764.3 661.5 775 674.8 786.7 687.3" vector-effect="none"/><polyline id="polyline56" fill="none" points="745.2 728.8 745.2 728.8 786.7 687.3" vector-effect="none"/><polyline id="polyline58" fill="none" points="956.5 816.5 956.5 816.5 956.5 757.5" vector-effect="none"/><polyline id="polyline60" fill="none" points="745.2 728.8 745.2 728.8 760.7 743.4 777.3 756.7 794.8 768.8 813.1 779.7 832.1 789.2 851.8 797.3 872 804 892.6 809.3 913.5 813.2 934.7 815.4 956 816.2" vector-effect="none"/><polyline id="polyline62" fill="none" points="786.7 687.3 786.7 687.3 799.2 699 812.5 709.7 826.5 719.4 841.3 728.1 856.5 735.7 872.3 742.3 888.5 747.7 905.1 751.9 921.9 755 938.9 756.8 956 757.4" vector-effect="none"/><polyline id="polyline64" fill="none" points="956.5 816.5 956.5 816.5 956.5 757.5" vector-effect="none"/><polyline id="polyline66" fill="none" points="1166.7 728.8 1166.7 728.8 1125.2 687.3" vector-effect="none"/><polyline id="polyline68" fill="none" points="956 816.2 956 816.2 977.2 815.4 998.4 813.2 1019.3 809.3 1039.9 804 1060.1 797.3 1079.8 789.2 1098.8 779.7 1117.1 768.8 1134.6 756.7 1151.2 743.4 1166.7 728.8" vector-effect="none"/><polyline id="polyline70" fill="none" points="956 757.4 956 757.4 973 756.8 990 755 1006.8 751.9 1023.4 747.7 1039.6 742.3 1055.4 735.7 1070.6 728.1 1085.4 719.4 1099.4 709.7 1112.7 699 1125.2 687.3" vector-effect="none"/><polyline id="polyline72" fill="none" points="1166.7 728.8 1166.7 728.8 1125.2 687.3" vector-effect="none"/><polyline id="polyline74" fill="none" points="1254.5 518.5 1254.5 518.5 1195.5 518.5" vector-effect="none"/><polyline id="polyline76" fill="none" points="1166.7 728.8 1166.7 728.8 1181.3 713.3 1194.6 696.7 1206.7 679.2 1217.6 660.9 1227.1 641.9 1235.2 622.2 1241.9 602 1247.2 581.4 1251.1 560.5 1253.3 539.3 1254.1 518.1" vector-effect="none"/><polyline id="polyline78" fill="none" points="1125.2 687.3 1125.2 687.3 1136.9 674.8 1147.6 661.5 1157.3 647.5 1166 632.7 1173.6 617.5 1180.2 601.7 1185.6 585.5 1189.8 568.9 1192.9 552.1 1194.7 535.1 1195.3 518.1 1195.3 518.1 1195.3 518.1 1151.4 518.1" vector-effect="none"/><polyline id="polyline80" fill="none" points="1125.2 348.8 1125.2 348.8 1094.1 379.9" vector-effect="none"/><polyline id="polyline82" fill="none" points="1195.3 518.1 1195.3 518.1 1194.7 501 1192.9 484 1189.8 467.2 1185.6 450.6 1180.2 434.4 1173.6 418.6 1166 403.4 1157.3 388.6 1147.6 374.6 1136.9 361.3 1125.2 348.8" vector-effect="none"/><polyline id="polyline84" fill="none" points="1151.4 518.1 1151.4 518.1 1150.9 504.1 1149.4 490.2 1146.9 476.5 1143.4 463 1139 449.8 1133.7 436.9 1127.5 424.4 1120.4 412.4 1112.4 400.9 1103.7 390.1 1094.1 379.9" vector-effect="none"/><polyline id="polyline86" fill="none" points="1125.2 348.8 1125.2 348.8 1094.1 379.9" vector-effect="none"/><polyline id="polyline88" fill="none" points="956.5 278.5 956.5 278.5 956.5 322.5" vector-effect="none"/><polyline id="polyline90" fill="none" points="1125.2 348.8 1125.2 348.8 1112.7 337.1 1099.4 326.4 1085.4 316.7 1070.6 308 1055.4 300.4 1039.6 293.8 1023.4 288.4 1006.8 284.2 990 281.1 973 279.3 956 278.7" vector-effect="none"/><polyline id="polyline92" fill="none" points="1094.1 379.9 1094.1 379.9 1083.9 370.3 1073.1 361.6 1061.6 353.6 1049.6 346.5 1037.1 340.3 1024.2 335 1011 330.6 997.5 327.1 983.8 324.6 969.9 323.1 956 322.6" vector-effect="none"/><polyline id="polyline94" fill="none" points="956.5 278.5 956.5 278.5 956.5 322.5" vector-effect="none"/><polyline id="polyline96" fill="none" points="786.7 348.8 786.7 348.8 817.8 379.9" vector-effect="none"/><polyline id="polyline98" fill="none" points="956 278.7 956 278.7 938.9 279.3 921.9 281.1 905.1 284.2 888.5 288.4 872.3 293.8 856.5 300.4 841.3 308 826.5 316.7 812.5 326.4 799.2 337.1 786.7 348.8" vector-effect="none"/><polyline id="polyline100" fill="none" points="956 322.6 956 322.6 942 323.1 928.1 324.6 914.4 327.1 900.9 330.6 887.7 335 874.8 340.3 862.3 346.5 850.3 353.6 838.8 361.6 828 370.3 817.8 379.9" vector-effect="none"/><polyline id="polyline102" fill="none" points="786.7 348.8 786.7 348.8 817.8 379.9" vector-effect="none"/><polyline id="polyline104" fill="none" points="716.5 518.5 716.5 518.5 760.5 518.5" vector-effect="none"/><polyline id="polyline106" fill="none" points="786.7 348.8 786.7 348.8 775 361.3 764.3 374.6 754.6 388.6 745.9 403.4 738.3 418.6 731.7 434.4 726.3 450.6 722.1 467.2 719 484 717.2 501 716.6 518.1" vector-effect="none"/><polyline id="polyline108" fill="none" points="817.8 379.9 817.8 379.9 808.2 390.1 799.5 400.9 791.5 412.4 784.4 424.4 778.2 436.9 772.9 449.8 768.5 463 765 476.5 762.5 490.2 761 504.1 760.5 518.1" vector-effect="none"/><polyline id="polyline110" fill="none" points="716.5 518.5 716.5 518.5 760.5 518.5" vector-effect="none"/><polyline id="polyline112" fill="none" points="786.7 687.3 786.7 687.3 817.8 656.2" vector-effect="none"/><polyline id="polyline114" fill="none" points="716.6 518.1 716.6 518.1 717.2 535.1 719 552.1 722.1 568.9 726.3 585.5 731.7 601.7 738.3 617.5 745.9 632.7 754.6 647.5 764.3 661.5 775 674.8 786.7 687.3" vector-effect="none"/><polyline id="polyline116" fill="none" points="760.5 518.1 760.5 518.1 761 532 762.5 545.9 765 559.6 768.5 573.1 772.9 586.3 778.2 599.2 784.4 611.7 791.5 623.7 799.5 635.2 808.2 646 817.8 656.2" vector-effect="none"/><polyline id="polyline118" fill="none" points="786.7 687.3 786.7 687.3 817.8 656.2" vector-effect="none"/><polyline id="polyline120" fill="none" points="956.5 757.5 956.5 757.5 956.5 713.5" vector-effect="none"/><polyline id="polyline122" fill="none" points="786.7 687.3 786.7 687.3 799.2 699 812.5 709.7 826.5 719.4 841.3 728.1 856.5 735.7 872.3 742.3 888.5 747.7 905.1 751.9 921.9 755 938.9 756.8 956 757.4" vector-effect="none"/><polyline id="polyline124" fill="none" points="817.8 656.2 817.8 656.2 828 665.8 838.8 674.5 850.3 682.5 862.3 689.6 874.8 695.8 887.7 701.1 900.9 705.5 914.4 709 928.1 711.5 942 713 956 713.5" vector-effect="none"/><polyline id="polyline126" fill="none" points="956.5 757.5 956.5 757.5 956.5 713.5" vector-effect="none"/><polyline id="polyline128" fill="none" points="1125.2 687.3 1125.2 687.3 1094.1 656.2" vector-effect="none"/><polyline id="polyline130" fill="none" points="956 757.4 956 757.4 973 756.8 990 755 1006.8 751.9 1023.4 747.7 1039.6 742.3 1055.4 735.7 1070.6 728.1 1085.4 719.4 1099.4 709.7 1112.7 699 1125.2 687.3" vector-effect="none"/><polyline id="polyline132" fill="none" points="956 713.5 956 713.5 969.9 713 983.8 711.5 997.5 709 1011 705.5 1024.2 701.1 1037.1 695.8 1049.6 689.6 1061.6 682.5 1073.1 674.5 1083.9 665.8 1094.1 656.2" vector-effect="none"/><polyline id="polyline134" fill="none" points="1125.2 687.3 1125.2 687.3 1094.1 656.2" vector-effect="none"/><polyline id="polyline136" fill="none" points="1195.5 518.5 1195.5 518.5 1151.5 518.5" vector-effect="none"/><polyline id="polyline138" fill="none" points="1125.2 687.3 1125.2 687.3 1136.9 674.8 1147.6 661.5 1157.3 647.5 1166 632.7 1173.6 617.5 1180.2 601.7 1185.6 585.5 1189.8 568.9 1192.9 552.1 1194.7 535.1 1195.3 518.1" vector-effect="none"/><polyline id="polyline140" fill="none" points="1094.1 656.2 1094.1 656.2 1103.7 646 1112.4 635.2 1120.4 623.7 1127.5 611.7 1133.7 599.2 1139 586.3 1143.4 573.1 1146.9 559.6 1149.4 545.9 1150.9 532 1151.4 518.1 1151.4 518.1 1151.4 518.1 1125.2 518.1" vector-effect="none"/><polyline id="polyline142" fill="none" points="1094.1 379.9 1094.1 379.9 1075.6 398.4" vector-effect="none"/><polyline id="polyline144" fill="none" points="1151.4 518.1 1151.4 518.1 1150.9 504.1 1149.4 490.2 1146.9 476.5 1143.4 463 1139 449.8 1133.7 436.9 1127.5 424.4 1120.4 412.4 1112.4 400.9 1103.7 390.1 1094.1 379.9" vector-effect="none"/><polyline id="polyline146" fill="none" points="1125.2 518.1 1125.2 518.1 1124.8 506 1123.5 494 1121.3 482.1 1118.3 470.4 1114.5 458.9 1109.8 447.8 1104.4 437 1098.3 426.6 1091.4 416.6 1083.9 407.2 1075.6 398.4" vector-effect="none"/><polyline id="polyline148" fill="none" points="1094.1 379.9 1094.1 379.9 1075.6 398.4" vector-effect="none"/><polyline id="polyline150" fill="none" points="956.5 322.5 956.5 322.5 956.5 348.5" vector-effect="none"/><polyline id="polyline152" fill="none" points="1094.1 379.9 1094.1 379.9 1083.9 370.3 1073.1 361.6 1061.6 353.6 1049.6 346.5 1037.1 340.3 1024.2 335 1011 330.6 997.5 327.1 983.8 324.6 969.9 323.1 956 322.6" vector-effect="none"/><polyline id="polyline154" fill="none" points="1075.6 398.4 1075.6 398.4 1066.8 390.1 1057.4 382.6 1047.4 375.7 1037 369.6 1026.2 364.2 1015.1 359.5 1003.6 355.7 991.9 352.7 980 350.5 968 349.2 956 348.8" vector-effect="none"/><polyline id="polyline156" fill="none" points="956.5 322.5 956.5 322.5 956.5 348.5" vector-effect="none"/><polyline id="polyline158" fill="none" points="817.8 379.9 817.8 379.9 836.3 398.4" vector-effect="none"/><polyline id="polyline160" fill="none" points="956 322.6 956 322.6 942 323.1 928.1 324.6 914.4 327.1 900.9 330.6 887.7 335 874.8 340.3 862.3 346.5 850.3 353.6 838.8 361.6 828 370.3 817.8 379.9" vector-effect="none"/><polyline id="polyline162" fill="none" points="956 348.8 956 348.8 943.9 349.2 931.9 350.5 920 352.7 908.3 355.7 896.8 359.5 885.7 364.2 874.9 369.6 864.5 375.7 854.5 382.6 845.1 390.1 836.3 398.4" vector-effect="none"/><polyline id="polyline164" fill="none" points="817.8 379.9 817.8 379.9 836.3 398.4" vector-effect="none"/><polyline id="polyline166" fill="none" points="760.5 518.5 760.5 518.5 786.5 518.5" vector-effect="none"/><polyline id="polyline168" fill="none" points="817.8 379.9 817.8 379.9 808.2 390.1 799.5 400.9 791.5 412.4 784.4 424.4 778.2 436.9 772.9 449.8 768.5 463 765 476.5 762.5 490.2 761 504.1 760.5 518.1" vector-effect="none"/><polyline id="polyline170" fill="none" points="836.3 398.4 836.3 398.4 828 407.2 820.5 416.6 813.6 426.6 807.5 437 802.1 447.8 797.4 458.9 793.6 470.4 790.6 482.1 788.4 494 787.1 506 786.7 518.1" vector-effect="none"/><polyline id="polyline172" fill="none" points="760.5 518.5 760.5 518.5 786.5 518.5" vector-effect="none"/><polyline id="polyline174" fill="none" points="817.8 656.2 817.8 656.2 836.3 637.7" vector-effect="none"/><polyline id="polyline176" fill="none" points="760.5 518.1 760.5 518.1 761 532 762.5 545.9 765 559.6 768.5 573.1 772.9 586.3 778.2 599.2 784.4 611.7 791.5 623.7 799.5 635.2 808.2 646 817.8 656.2" vector-effect="none"/><polyline id="polyline178" fill="none" points="786.7 518.1 786.7 518.1 787.1 530.1 788.4 542.1 790.6 554 793.6 565.7 797.4 577.2 802.1 588.3 807.5 599.1 813.6 609.5 820.5 619.5 828 628.9 836.3 637.7" vector-effect="none"/><polyline id="polyline180" fill="none" points="817.8 656.2 817.8 656.2 836.3 637.7" vector-effect="none"/><polyline id="polyline182" fill="none" points="956.5 713.5 956.5 713.5 956.5 687.5" vector-effect="none"/><polyline id="polyline184" fill="none" points="817.8 656.2 817.8 656.2 828 665.8 838.8 674.5 850.3 682.5 862.3 689.6 874.8 695.8 887.7 701.1 900.9 705.5 914.4 709 928.1 711.5 942 713 956 713.5" vector-effect="none"/><polyline id="polyline186" fill="none" points="836.3 637.7 836.3 637.7 845.1 646 854.5 653.5 864.5 660.4 874.9 666.5 885.7 671.9 896.8 676.6 908.3 680.4 920 683.4 931.9 685.6 943.9 686.9 956 687.3" vector-effect="none"/><polyline id="polyline188" fill="none" points="956.5 713.5 956.5 713.5 956.5 687.5" vector-effect="none"/><polyline id="polyline190" fill="none" points="1094.1 656.2 1094.1 656.2 1075.6 637.7" vector-effect="none"/><polyline id="polyline192" fill="none" points="956 713.5 956 713.5 969.9 713 983.8 711.5 997.5 709 1011 705.5 1024.2 701.1 1037.1 695.8 1049.6 689.6 1061.6 682.5 1073.1 674.5 1083.9 665.8 1094.1 656.2" vector-effect="none"/><polyline id="polyline194" fill="none" points="956 687.3 956 687.3 968 686.9 980 685.6 991.9 683.4 1003.6 680.4 1015.1 676.6 1026.2 671.9 1037 666.5 1047.4 660.4 1057.4 653.5 1066.8 646 1075.6 637.7" vector-effect="none"/><polyline id="polyline196" fill="none" points="1094.1 656.2 1094.1 656.2 1075.6 637.7" vector-effect="none"/><polyline id="polyline198" fill="none" points="1151.5 518.5 1151.5 518.5 1125.5 518.5" vector-effect="none"/><polyline id="polyline200" fill="none" points="1094.1 656.2 1094.1 656.2 1103.7 646 1112.4 635.2 1120.4 623.7 1127.5 611.7 1133.7 599.2 1139 586.3 1143.4 573.1 1146.9 559.6 1149.4 545.9 1150.9 532 1151.4 518.1" vector-effect="none"/><polyline id="polyline202" fill="none" points="1075.6 637.7 1075.6 637.7 1083.9 628.9 1091.4 619.5 1098.3 609.5 1104.4 599.1 1109.8 588.3 1114.5 577.2 1118.3 565.7 1121.3 554 1123.5 542.1 1124.8 530.1 1125.2 518.1 1125.2 518.1 1125.2 518.1 1111.5 518.1" vector-effect="none"/><polyline id="polyline204" fill="none" points="1075.6 398.4 1075.6 398.4 1066 408" vector-effect="none"/><polyline id="polyline206" fill="none" points="1125.2 518.1 1125.2 518.1 1124.8 506 1123.5 494 1121.3 482.1 1118.3 470.4 1114.5 458.9 1109.8 447.8 1104.4 437 1098.3 426.6 1091.4 416.6 1083.9 407.2 1075.6 398.4" vector-effect="none"/><polyline id="polyline208" fill="none" points="1111.5 518.1 1111.5 518.1 1111.2 506.9 1110 495.9 1108 485 1105.2 474.2 1101.7 463.7 1097.5 453.4 1092.5 443.5 1086.8 433.9 1080.5 424.8 1073.6 416.1 1066 408" vector-effect="none"/><polyline id="polyline210" fill="none" points="1075.6 398.4 1075.6 398.4 1066 408" vector-effect="none"/><polyline id="polyline212" fill="none" points="956.5 348.5 956.5 348.5 956.5 362.5" vector-effect="none"/><polyline id="polyline214" fill="none" points="1075.6 398.4 1075.6 398.4 1066.8 390.1 1057.4 382.6 1047.4 375.7 1037 369.6 1026.2 364.2 1015.1 359.5 1003.6 355.7 991.9 352.7 980 350.5 968 349.2 956 348.8" vector-effect="none"/><polyline id="polyline216" fill="none" points="1066 408 1066 408 1057.9 400.4 1049.2 393.5 1040.1 387.2 1030.5 381.5 1020.6 376.5 1010.3 372.3 999.8 368.8 989 366 978.1 364 967.1 362.8 956 362.5" vector-effect="none"/><polyline id="polyline218" fill="none" points="956.5 348.5 956.5 348.5 956.5 362.5" vector-effect="none"/><polyline id="polyline220" fill="none" points="836.3 398.4 836.3 398.4 845.9 408" vector-effect="none"/><polyline id="polyline222" fill="none" points="956 348.8 956 348.8 943.9 349.2 931.9 350.5 920 352.7 908.3 355.7 896.8 359.5 885.7 364.2 874.9 369.6 864.5 375.7 854.5 382.6 845.1 390.1 836.3 398.4" vector-effect="none"/><polyline id="polyline224" fill="none" points="956 362.5 956 362.5 944.8 362.8 933.8 364 922.9 366 912.1 368.8 901.6 372.3 891.3 376.5 881.4 381.5 871.8 387.2 862.7 393.5 854 400.4 845.9 408" vector-effect="none"/><polyline id="polyline226" fill="none" points="836.3 398.4 836.3 398.4 845.9 408" vector-effect="none"/><polyline id="polyline228" fill="none" points="786.5 518.5 786.5 518.5 800.5 518.5" vector-effect="none"/><polyline id="polyline230" fill="none" points="836.3 398.4 836.3 398.4 828 407.2 820.5 416.6 813.6 426.6 807.5 437 802.1 447.8 797.4 458.9 793.6 470.4 790.6 482.1 788.4 494 787.1 506 786.7 518.1" vector-effect="none"/><polyline id="polyline232" fill="none" points="845.9 408 845.9 408 838.3 416.1 831.4 424.8 825.1 433.9 819.4 443.5 814.4 453.4 810.2 463.7 806.7 474.2 803.9 485 801.9 495.9 800.7 506.9 800.4 518.1" vector-effect="none"/><polyline id="polyline234" fill="none" points="786.5 518.5 786.5 518.5 800.5 518.5" vector-effect="none"/><polyline id="polyline236" fill="none" points="836.3 637.7 836.3 637.7 845.9 628.1" vector-effect="none"/><polyline id="polyline238" fill="none" points="786.7 518.1 786.7 518.1 787.1 530.1 788.4 542.1 790.6 554 793.6 565.7 797.4 577.2 802.1 588.3 807.5 599.1 813.6 609.5 820.5 619.5 828 628.9 836.3 637.7" vector-effect="none"/><polyline id="polyline240" fill="none" points="800.4 518.1 800.4 518.1 800.7 529.2 801.9 540.2 803.9 551.1 806.7 561.9 810.2 572.4 814.4 582.7 819.4 592.6 825.1 602.2 831.4 611.3 838.3 620 845.9 628.1" vector-effect="none"/><polyline id="polyline242" fill="none" points="836.3 637.7 836.3 637.7 845.9 628.1" vector-effect="none"/><polyline id="polyline244" fill="none" points="956.5 687.5 956.5 687.5 956.5 673.5" vector-effect="none"/><polyline id="polyline246" fill="none" points="836.3 637.7 836.3 637.7 845.1 646 854.5 653.5 864.5 660.4 874.9 666.5 885.7 671.9 896.8 676.6 908.3 680.4 920 683.4 931.9 685.6 943.9 686.9 956 687.3" vector-effect="none"/><polyline id="polyline248" fill="none" points="845.9 628.1 845.9 628.1 854 635.7 862.7 642.6 871.8 648.9 881.4 654.6 891.3 659.6 901.6 663.8 912.1 667.3 922.9 670.1 933.8 672.1 944.8 673.3 956 673.6" vector-effect="none"/><polyline id="polyline250" fill="none" points="956.5 687.5 956.5 687.5 956.5 673.5" vector-effect="none"/><polyline id="polyline252" fill="none" points="1075.6 637.7 1075.6 637.7 1066 628.1" vector-effect="none"/><polyline id="polyline254" fill="none" points="956 687.3 956 687.3 968 686.9 980 685.6 991.9 683.4 1003.6 680.4 1015.1 676.6 1026.2 671.9 1037 666.5 1047.4 660.4 1057.4 653.5 1066.8 646 1075.6 637.7" vector-effect="none"/><polyline id="polyline256" fill="none" points="956 673.6 956 673.6 967.1 673.3 978.1 672.1 989 670.1 999.8 667.3 1010.3 663.8 1020.6 659.6 1030.5 654.6 1040.1 648.9 1049.2 642.6 1057.9 635.7 1066 628.1" vector-effect="none"/><polyline id="polyline258" fill="none" points="1075.6 637.7 1075.6 637.7 1066 628.1" vector-effect="none"/><polyline id="polyline260" fill="none" points="1125.5 518.5 1125.5 518.5 1111.5 518.5" vector-effect="none"/><polyline id="polyline262" fill="none" points="1075.6 637.7 1075.6 637.7 1083.9 628.9 1091.4 619.5 1098.3 609.5 1104.4 599.1 1109.8 588.3 1114.5 577.2 1118.3 565.7 1121.3 554 1123.5 542.1 1124.8 530.1 1125.2 518.1" vector-effect="none"/><polyline id="polyline264" fill="none" points="1066 628.1 1066 628.1 1073.6 620 1080.5 611.3 1086.8 602.2 1092.5 592.6 1097.5 582.7 1101.7 572.4 1105.2 561.9 1108 551.1 1110 540.2 1111.2 529.2 1111.5 518.1 1111.5 518.1 1111.5 518.1 1105 518.1" vector-effect="none"/><polyline id="polyline266" fill="none" points="1066 408 1066 408 1061.3 412.7" vector-effect="none"/><polyline id="polyline268" fill="none" points="1111.5 518.1 1111.5 518.1 1111.2 506.9 1110 495.9 1108 485 1105.2 474.2 1101.7 463.7 1097.5 453.4 1092.5 443.5 1086.8 433.9 1080.5 424.8 1073.6 416.1 1066 408" vector-effect="none"/><polyline id="polyline270" fill="none" points="1105 518.1 1105 518.1 1104.6 507.4 1103.5 496.8 1101.6 486.4 1098.9 476.1 1095.6 466 1091.5 456.1 1086.8 446.6 1081.3 437.5 1075.3 428.7 1068.6 420.4 1061.3 412.7" vector-effect="none"/><polyline id="polyline272" fill="none" points="1066 408 1066 408 1061.3 412.7" vector-effect="none"/><polyline id="polyline274" fill="none" points="956.5 362.5 956.5 362.5 956.5 369.5" vector-effect="none"/><polyline id="polyline276" fill="none" points="1066 408 1066 408 1057.9 400.4 1049.2 393.5 1040.1 387.2 1030.5 381.5 1020.6 376.5 1010.3 372.3 999.8 368.8 989 366 978.1 364 967.1 362.8 956 362.5" vector-effect="none"/><polyline id="polyline278" fill="none" points="1061.3 412.7 1061.3 412.7 1053.6 405.4 1045.3 398.7 1036.5 392.7 1027.4 387.2 1017.9 382.5 1008 378.4 997.9 375.1 987.6 372.4 977.2 370.5 966.6 369.4 956 369" vector-effect="none"/><polyline id="polyline280" fill="none" points="956.5 362.5 956.5 362.5 956.5 369.5" vector-effect="none"/><polyline id="polyline282" fill="none" points="845.9 408 845.9 408 850.6 412.7" vector-effect="none"/><polyline id="polyline284" fill="none" points="956 362.5 956 362.5 944.8 362.8 933.8 364 922.9 366 912.1 368.8 901.6 372.3 891.3 376.5 881.4 381.5 871.8 387.2 862.7 393.5 854 400.4 845.9 408" vector-effect="none"/><polyline id="polyline286" fill="none" points="956 369 956 369 945.3 369.4 934.7 370.5 924.3 372.4 914 375.1 903.9 378.4 894 382.5 884.5 387.2 875.4 392.7 866.6 398.7 858.3 405.4 850.6 412.7" vector-effect="none"/><polyline id="polyline288" fill="none" points="845.9 408 845.9 408 850.6 412.7" vector-effect="none"/><polyline id="polyline290" fill="none" points="800.5 518.5 800.5 518.5 806.5 518.5" vector-effect="none"/><polyline id="polyline292" fill="none" points="845.9 408 845.9 408 838.3 416.1 831.4 424.8 825.1 433.9 819.4 443.5 814.4 453.4 810.2 463.7 806.7 474.2 803.9 485 801.9 495.9 800.7 506.9 800.4 518.1" vector-effect="none"/><polyline id="polyline294" fill="none" points="850.6 412.7 850.6 412.7 843.3 420.4 836.6 428.7 830.6 437.5 825.1 446.6 820.4 456.1 816.3 466 813 476.1 810.3 486.4 808.4 496.8 807.3 507.4 806.9 518.1" vector-effect="none"/><polyline id="polyline296" fill="none" points="800.5 518.5 800.5 518.5 806.5 518.5" vector-effect="none"/><polyline id="polyline298" fill="none" points="845.9 628.1 845.9 628.1 850.6 623.4" vector-effect="none"/><polyline id="polyline300" fill="none" points="800.4 518.1 800.4 518.1 800.7 529.2 801.9 540.2 803.9 551.1 806.7 561.9 810.2 572.4 814.4 582.7 819.4 592.6 825.1 602.2 831.4 611.3 838.3 620 845.9 628.1" vector-effect="none"/><polyline id="polyline302" fill="none" points="806.9 518.1 806.9 518.1 807.3 528.7 808.4 539.3 810.3 549.7 813 560 816.3 570.1 820.4 580 825.1 589.5 830.6 598.6 836.6 607.4 843.3 615.7 850.6 623.4" vector-effect="none"/><polyline id="polyline304" fill="none" points="845.9 628.1 845.9 628.1 850.6 623.4" vector-effect="none"/><polyline id="polyline306" fill="none" points="956.5 673.5 956.5 673.5 956.5 667.5" vector-effect="none"/><polyline id="polyline308" fill="none" points="845.9 628.1 845.9 628.1 854 635.7 862.7 642.6 871.8 648.9 881.4 654.6 891.3 659.6 901.6 663.8 912.1 667.3 922.9 670.1 933.8 672.1 944.8 673.3 956 673.6" vector-effect="none"/><polyline id="polyline310" fill="none" points="850.6 623.4 850.6 623.4 858.3 630.7 866.6 637.4 875.4 643.4 884.5 648.9 894 653.6 903.9 657.7 914 661 924.3 663.7 934.7 665.6 945.3 666.7 956 667.1" vector-effect="none"/><polyline id="polyline312" fill="none" points="956.5 673.5 956.5 673.5 956.5 667.5" vector-effect="none"/><polyline id="polyline314" fill="none" points="1066 628.1 1066 628.1 1061.3 623.4" vector-effect="none"/><polyline id="polyline316" fill="none" points="956 673.6 956 673.6 967.1 673.3 978.1 672.1 989 670.1 999.8 667.3 1010.3 663.8 1020.6 659.6 1030.5 654.6 1040.1 648.9 1049.2 642.6 1057.9 635.7 1066 628.1" vector-effect="none"/><polyline id="polyline318" fill="none" points="956 667.1 956 667.1 966.6 666.7 977.2 665.6 987.6 663.7 997.9 661 1008 657.7 1017.9 653.6 1027.4 648.9 1036.5 643.4 1045.3 637.4 1053.6 630.7 1061.3 623.4" vector-effect="none"/><polyline id="polyline320" fill="none" points="1066 628.1 1066 628.1 1061.3 623.4" vector-effect="none"/><polyline id="polyline322" fill="none" points="1111.5 518.5 1111.5 518.5 1105.5 518.5" vector-effect="none"/><polyline id="polyline324" fill="none" points="1066 628.1 1066 628.1 1073.6 620 1080.5 611.3 1086.8 602.2 1092.5 592.6 1097.5 582.7 1101.7 572.4 1105.2 561.9 1108 551.1 1110 540.2 1111.2 529.2 1111.5 518.1" vector-effect="none"/><polyline id="polyline326" fill="none" points="1061.3 623.4 1061.3 623.4 1068.6 615.7 1075.3 607.4 1081.3 598.6 1086.8 589.5 1091.5 580 1095.6 570.1 1098.9 560 1101.6 549.7 1103.5 539.3 1104.6 528.7 1105 518.1" vector-effect="none"/></g></g></svg>